<?xml version="1.0" encoding="UTF-8"?>
<svg id="Layer_2" data-name="Layer 2" xmlns="http://www.w3.org/2000/svg" viewBox="0 0 3088.15 1430.72">
  <defs>
    <style>
      .cls-1 {
        letter-spacing: .87em;
      }

      .cls-2 {
        letter-spacing: .89em;
      }

      .cls-3 {
        fill: #d1d3d4;
        font-family: Montserrat-Medium, Montserrat;
        font-size: 180px;
        font-weight: 500;
      }

      .cls-4 {
        fill: #c93f27;
        font-size: 856.81px;
      }

      .cls-4, .cls-5 {
        font-family: InfiniteJustice, 'Infinite Justice';
      }

      .cls-5 {
        font-size: 12px;
      }

      .cls-6 {
        fill: #fff;
        stroke-width: 0px;
      }
    </style>
  </defs>
  <g id="Layer_1-2" data-name="Layer 1">
    <text class="cls-4" transform="translate(38.09 1107.38)"><tspan x="0" y="0">Arzak</tspan></text>
    <text class="cls-3" transform="translate(645.59 1383.38)"><tspan class="cls-1" x="0" y="0">C</tspan><tspan class="cls-2" x="287.28" y="0">AR RENT</tspan></text>
    <g>
      <g>
        <path class="cls-6" d="m2547.86,198.74c3,.98,13.65,7.04,2.66,17.93-30.63,30.38-67.85,48.18-109.26,60.64-57.39,18.19-123.71,17.93-183.3,21-97.08,5.09-194.36,7.11-291.63,8.61-179.51,2.8-358.48,8.41-537.92,13.76-52.6,1.56-153.81,3.91-252.15,5.87l-.4-19.23c27.5-.59,54.93-1.11,82.36-1.76,105.33-2.41,210.54-6.85,315.8-10.43,18.58-73.09,38.02-149.25,70.78-217.91l-.33-19.3c304.48-4.82,616.22,46.68,903.4,140.84Zm-111.79,59.66c33.69-10.11,64.05-23.8,90.09-46.1-122.11-39.25-248.75-71-377.39-93.89,54.8,48.58,105.73,102.24,152.87,157.72,10.19-.72,20.37-1.37,30.49-2.22,34.49-2.93,70.78-4.96,103.94-15.52Zm-159.07,19.3c-50.67-58.62-105.53-114.89-164.86-164.9-.27-.2-.47-.46-.73-.72-114.19-18.71-229.65-30.38-344.63-34.1-4.26,70.68-10.39,141.42-11.25,212.23,11.65-.2,23.24-.46,34.89-.59,125.38-1.5,250.75-2.61,376.06-6.98,36.82-1.3,73.71-2.74,110.53-4.96Z"/>
        <path class="cls-6" d="m1644.46,57.91l.33,19.3c-25.43.46-50.87,1.3-76.17,2.61-171.18,8.87-337.91,57.18-492.71,129.62,13.65,2.15,32.83,13.11,42.21,32.34,7.99,16.37,8.79,38.73-7.06,66.7,21.57-.39,43.21-.78,64.79-1.17l.4,19.23c-113.19,2.28-222.59,4.17-249.95,3.85-21.91-.26-49.34.39-66.85-.91-15.51-2.02-18.51-9.59-4.46-19.63,52.8-34.17,107.8-66.05,164.59-94.93,3.13-1.7,6.33-3.32,9.59-4.82.07,0,.13-.06.27-.06,167.92-83.92,351.42-140.9,539.32-149.77,25.17-1.17,50.47-1.96,75.7-2.35Zm-668.89,252.79c-8.79-17.34-8.79-33.77-2.93-48.51-28.76,15.97-57,32.67-84.69,50.01,29.03,1.17,58.79-.59,87.62-1.5Z"/>
      </g>
      <g>
        <path class="cls-6" d="m547.23,429.44c84.03,5.18,167.8,10.24,251.65,14.42,7.16-3.16,17.82-5.26,33.63-6.19,431.02-21.59,914.24-33.71,1915.24-84.67-174-11.4-996.36,17.05-1511.05,32.88-247.13,7.6-494.31,17.63-741.13,32.38-4.55.03-29.28,2.35-56.74,5.94,36.38,1.18,72.58,3.03,108.4,5.24Z"/>
        <path class="cls-6" d="m3084.84,440.08c-5.38-14.26-10.93-28.12-19.19-40.74,8.43-11.99,11.83-25.45,10.67-41.94-.29-4-1.38-8.71-2.53-13.7-2.19-9.46-5.19-22.41-.77-26.87l.51-.52c1.86-1.9,3.13-4.21,3.74-6.73.27-1,.44-2.03.48-2.91l.12-.59v-.73c-.29-29.4-7.24-48.58-41.91-59.66-21.81-6.97-47.49-7.05-70.14-7.14l-9.33-.05c-33.14-.32-66.17-1.93-97.68-4.71-21.37-3.45-42.97-10.78-63.88-17.86-6.82-2.31-13.6-4.61-20.32-6.77-21.13-6.76-42.23-13.58-63.33-20.4-35.54-11.49-72.3-23.37-108.55-34.77-130.01-40.88-268.89-82.85-411.49-107.37C1932.78-2.69,1682.12-12.95,1446.18,16.16c-231.49,28.57-437.92,135.18-637.55,238.29-12.89,6.66-25.77,13.31-38.67,19.95-128.14.51-295.02,6.93-452.64,51.67-94.97,26.96-192.86,64.1-290.93,110.39l-26.39,12.46,76.86-.17,1.26-.53c64.4-27.27,166.2-65.99,236.18-87.24,154.38-46.86,319.03-53.59,459.74-54,2.78,0,5.4-.64,7.75-1.86l.45-.23c14.4-7.4,28.78-14.84,43.17-22.27,193.55-99.98,393.68-203.37,616.58-233.22,230.08-30.82,479.53-21.09,741.52,28.92,139.9,24.05,279.19,66.03,409.86,106.97,39.68,12.43,79.9,25.44,118.8,38.03,15.65,5.07,31.3,10.13,46.95,15.17,7.26,2.33,14.58,4.84,21.94,7.36,23.27,7.96,47.34,16.19,71.69,19.95.41.06.8.1,1.23.11.58.13,1.17.23,1.79.29,33.08,2.97,69.44,4.62,111.2,5.02,19.94.19,40.26,2.19,60.37,5.95,8.03,1.5,12.11,4.31,14.31,8.47-46.34.17-91.35,9.75-129.66,19.26l-10.75,2.63c-28.93,7.04-61.71,15.01-87.42,30.25-4.97,2.95-7.87,7.81-7.89,12.73-.19,1.8-.11,3.48.23,5.13,11.65,55.67,73.99,59.85,94.47,61.23,48.83,3.27,94.38,2.38,135.42-2.68,7.82,10.18,13.01,21.57,16.72,30.59l1.68,4.08h33.69l-3.31-8.78Zm-44.05-97.87c3.28,19.98,4.36,32.77-8.37,39.73-32.36,3.94-66.02,3.88-100.57,3.45l-7.47-.06c-30.46-.18-67.9-.4-81.6-25.58,16.82-7.64,36.08-12.57,54.77-17.36,4.99-1.28,9.91-2.53,14.67-3.82,49.32-13.3,89.74-19.79,126.36-20.24-.45,7.65.9,15.86,2.22,23.87Z"/>
        <path class="cls-6" d="m2754.44,288.6c-69.48.07-167.93-7.3-222.03-11.79,0,0-27.4,10.29-39.39,12.52-20.12,3.74-89.06,11.35-89.06,11.35,69.3,5.84,363.35-12.1,350.48-12.08Z"/>
        <path class="cls-6" d="m1656.59,295.82l20.37-.19c5.24-54.34,20.39-197.72,20.39-197.72-13,54.79-35.35,141.82-40.76,197.91Z"/>
      </g>
    </g>
    <text class="cls-5" transform="translate(1251.94 820.5)"><tspan x="0" y="0">Lorem ipsum</tspan></text>
  </g>
</svg>