<svg width="512" height="150" viewBox="0 0 512 150" fill="none" xmlns="http://www.w3.org/2000/svg">
<g clip-path="url(#clip0_3_9)">
<path d="M97.844 53.853C107.477 60.735 119.278 64.785 132.023 64.785V40.272C129.611 40.2722 127.205 40.0208 124.845 39.522V58.817C112.101 58.817 100.302 54.767 90.666 47.885V97.91C90.666 122.935 70.37 143.22 45.334 143.22C35.993 143.22 27.31 140.397 20.098 135.556C28.329 143.969 39.81 149.188 52.51 149.188C77.548 149.188 97.845 128.903 97.845 103.878V53.852L97.844 53.853ZM106.699 29.123C101.634 23.6063 98.5231 16.5781 97.844 9.11998V5.96698H91.042C92.754 15.729 98.594 24.068 106.699 29.123ZM35.933 116.352C33.1827 112.748 31.6961 108.338 31.703 103.804C31.703 92.359 40.986 83.079 52.44 83.079C54.574 83.079 56.696 83.405 58.73 84.05V58.99C56.3529 58.664 53.9538 58.5256 51.555 58.576V78.083C49.5197 77.4377 47.3971 77.1102 45.262 77.112C33.808 77.112 24.525 86.391 24.525 97.838C24.525 105.931 29.165 112.938 35.933 116.352Z" fill="#FF004F"/>
<path d="M90.666 47.885C100.302 54.767 112.101 58.816 124.846 58.816V39.521C117.862 38.0281 111.518 34.3931 106.699 29.123C98.594 24.068 92.754 15.728 91.042 5.96698H73.176V103.875C73.136 115.289 63.867 124.531 52.439 124.531C45.704 124.531 39.72 121.322 35.931 116.352C29.165 112.938 24.524 105.931 24.524 97.838C24.524 86.392 33.807 77.112 45.261 77.112C47.455 77.112 49.571 77.454 51.554 78.083V58.577C26.958 59.085 7.177 79.172 7.177 103.876C7.177 116.208 12.103 127.387 20.098 135.556C27.5597 140.566 36.3473 143.234 45.335 143.219C70.371 143.219 90.667 122.933 90.667 97.909L90.666 47.885Z" fill="white"/>
<path d="M124.845 39.52V34.303C118.43 34.3128 112.142 32.5174 106.699 29.122C111.517 34.3939 117.861 38.0285 124.845 39.52ZM91.042 5.968C90.8786 5.03548 90.7532 4.0967 90.666 3.154V0H65.997V97.909C65.957 109.321 56.691 118.563 45.261 118.563C42.0207 118.568 38.8247 117.811 35.931 116.353C39.721 121.323 45.704 124.531 52.439 124.531C63.866 124.531 73.136 115.29 73.176 103.876V5.967L91.042 5.968ZM51.555 58.578V53.024C49.4937 52.7422 47.4155 52.6012 45.335 52.602C20.297 52.6 0 72.886 0 97.909C0 113.596 7.977 127.422 20.099 135.555C12.104 127.387 7.178 116.207 7.178 103.875C7.178 79.172 26.958 59.086 51.555 58.578Z" fill="#00F2EA"/>
<path d="M410.689 122.705C428.603 122.705 443.126 108.3 443.126 90.531C443.126 72.763 428.603 58.355 410.689 58.355H405.8C423.715 58.355 438.238 72.763 438.238 90.531C438.238 108.3 423.715 122.705 405.8 122.705H410.688H410.689Z" fill="#FF004F"/>
<path d="M405.359 58.355H400.472C382.558 58.355 368.032 72.763 368.032 90.531C368.032 108.3 382.558 122.705 400.472 122.705H405.359C387.442 122.705 372.919 108.3 372.919 90.531C372.919 72.763 387.442 58.355 405.359 58.355Z" fill="#00F2EA"/>
<path d="M266.725 43.813V80.39L285.384 61.88H308.044L284.494 84.8L310.711 122.704H290.718L272.502 96.698L266.725 101.991V122.264H248.062V43.813H266.725ZM468.009 43.813V80.39L486.672 61.88H509.332L485.782 84.8L512 122.706H492.004L473.784 96.7L468.009 101.993V122.266H449.343V43.813H468.009ZM405.799 58.355C423.714 58.355 438.239 72.763 438.239 90.531C438.239 108.3 423.714 122.705 405.799 122.705H405.357C387.442 122.705 372.919 108.3 372.919 90.531C372.919 72.763 387.442 58.355 405.357 58.355H405.799ZM217.85 43.813L212.517 60.562H196.967V122.265H177.856V60.122H158.753V43.812H217.849L217.85 43.813ZM374.255 43.813L368.924 60.562H353.374V122.265H334.263V60.122H315.16V43.812L374.255 43.813ZM240.062 68.936V122.266H221.406V68.936H240.062ZM405.582 74.887C396.87 74.887 389.804 81.888 389.804 90.531C389.804 99.174 396.87 106.178 405.582 106.18C414.289 106.18 421.354 99.174 421.354 90.531C421.354 81.888 414.289 74.887 405.582 74.887ZM230.73 43.813C235.887 43.813 240.062 47.958 240.062 53.068C240.062 58.178 235.89 62.323 230.73 62.323C225.577 62.321 221.406 58.179 221.406 53.068C221.406 47.958 225.577 43.813 230.73 43.813Z" fill="white"/>
</g>
<defs>
<clipPath id="clip0_3_9">
<rect width="512" height="150" fill="white"/>
</clipPath>
</defs>
</svg>
