<svg width="280" height="280" viewBox="0 0 280 280" fill="none" xmlns="http://www.w3.org/2000/svg">
<path d="M81.2 0H198.8C243.6 0 280 36.4 280 81.2V198.8C280 220.336 271.445 240.989 256.217 256.217C240.989 271.445 220.336 280 198.8 280H81.2C36.4 280 0 243.6 0 198.8V81.2C0 59.6644 8.55498 39.0109 23.7829 23.7829C39.0109 8.55498 59.6644 0 81.2 0ZM78.4 28C65.0331 28 52.2137 33.31 42.7618 42.7618C33.31 52.2137 28 65.0331 28 78.4V201.6C28 229.46 50.54 252 78.4 252H201.6C214.967 252 227.786 246.69 237.238 237.238C246.69 227.786 252 214.967 252 201.6V78.4C252 50.54 229.46 28 201.6 28H78.4ZM213.5 49C218.141 49 222.592 50.8437 225.874 54.1256C229.156 57.4075 231 61.8587 231 66.5C231 71.1413 229.156 75.5925 225.874 78.8744C222.592 82.1563 218.141 84 213.5 84C208.859 84 204.408 82.1563 201.126 78.8744C197.844 75.5925 196 71.1413 196 66.5C196 61.8587 197.844 57.4075 201.126 54.1256C204.408 50.8437 208.859 49 213.5 49ZM140 70C158.565 70 176.37 77.375 189.497 90.5025C202.625 103.63 210 121.435 210 140C210 158.565 202.625 176.37 189.497 189.497C176.37 202.625 158.565 210 140 210C121.435 210 103.63 202.625 90.5025 189.497C77.375 176.37 70 158.565 70 140C70 121.435 77.375 103.63 90.5025 90.5025C103.63 77.375 121.435 70 140 70ZM140 98C128.861 98 118.178 102.425 110.302 110.302C102.425 118.178 98 128.861 98 140C98 151.139 102.425 161.822 110.302 169.698C118.178 177.575 128.861 182 140 182C151.139 182 161.822 177.575 169.698 169.698C177.575 161.822 182 151.139 182 140C182 128.861 177.575 118.178 169.698 110.302C161.822 102.425 151.139 98 140 98Z" fill="white"/>
</svg>
